<svg width="839" height="535" viewBox="0 0 839 535" fill="none" xmlns="http://www.w3.org/2000/svg">
<g opacity="0.4">
<path fill-rule="evenodd" clip-rule="evenodd" d="M75.7799 324.845C80.3091 325.754 84.3528 324.016 87.0238 326.352C89.8137 328.794 92.1526 331.284 92.0833 334.603C91.8603 345.062 91.8058 355.524 92.1427 365.979C92.2171 368.424 90.7899 370.236 89.3231 372.239C85.3488 377.664 81.107 382.983 75.0564 387.591C72.2318 389.745 68.9661 391.522 64.759 392.571C62.5191 393.128 60.5964 391.32 57.6925 393.038C55.3734 394.408 52.5636 390.539 49.0849 390.693C46.964 387.239 51.3644 385.646 54.2386 383.498C50.5616 382.41 46.7014 382.496 43.2524 381.165C39.8728 379.859 37.2216 378.672 38.0194 376.044C39.0006 372.796 34.9124 371.59 32.613 369.65C33.619 368.783 35.9431 368.22 35.1849 366.885C29.0352 356.013 33.5149 348.566 38.9015 339.656C40.3931 337.179 42.5982 334.238 42.8163 332.113C43.3465 326.883 48.852 323.117 50.1751 318.252C51.1513 314.655 54.7787 312.469 61.1663 312.683C62.3655 312.725 63.3814 310.939 66.5677 311.352C67.4349 311.95 70.2 312.994 70.1356 313.967C69.9374 317.186 70.6014 319.708 75.6857 321.219C76.3547 321.417 75.7799 323.36 75.7799 324.845Z" fill="#FCFFE6"/>
<path fill-rule="evenodd" clip-rule="evenodd" d="M344.545 63.4381C339.005 62.5324 332.077 65.2399 327.582 61.0058C329.456 58.5927 331.289 56.2309 333.023 53.997C330.635 52.4192 329.163 53.1521 326.918 53.7154C318.608 55.818 316.651 55.1267 313.722 49.7661C313.296 48.9884 313.504 47.8299 312.156 47.6538C302.681 46.4409 304.852 40.3026 300.912 36.7693C304.971 33.6714 298.172 30.5638 300.402 28.0611C302.919 25.232 302.111 21.2891 307.29 19.4073C308.821 18.8504 308.043 17.8551 308.246 17.0454C310.02 9.98856 314.713 4.40709 326.036 2.00361C327.533 1.68357 328.222 0.118584 331.408 0.726658C332.84 2.62128 334.614 4.96716 336.393 7.31624C339.233 7.89871 344.267 6.23131 343.509 10.6222H358.975C359.941 15.3748 358.881 20.4026 364.793 23.9806C365.259 24.2623 365.303 25.2064 364.941 25.6288C361.438 29.7061 363.737 34.5291 361.096 38.5552C359.758 40.5938 358.802 42.0884 360.709 43.9606C365.313 48.4795 360.665 51.9744 357.047 55.1843C353.653 58.2023 348.935 60.6026 344.545 63.4381Z" fill="#FCFFE6"/>
<path fill-rule="evenodd" clip-rule="evenodd" d="M211.591 287.32C213.533 284.501 217.592 285.224 221.838 284.6C220.966 280.952 223.791 277.022 219.262 273.533C223.508 273.437 223.508 273.437 225.753 274.522C228.791 273.38 229.802 271.277 232.027 269.213C231.333 275.559 235.327 280.132 242.334 283.15C245.516 283.554 245.991 282.014 247.557 281.624C252.869 287.951 253.003 291.11 248.781 307.72C246.586 316.329 239.703 323.424 229.965 330.58C227.032 330.993 222.23 325.52 217.785 330.743C213.479 325.805 221.397 323.081 221.829 318.326C217.532 319.577 213.365 320.582 209.014 319.59C206.729 318.316 209.693 316.226 207.195 314.856C203.251 312.693 199.742 310.334 205.153 307.083C199.306 304.286 206.596 301.844 205.709 299.018C204.856 296.291 205.525 293.363 205.525 290.434C209.787 290.978 210.575 294.224 215.163 293.705C219.103 290.37 212.165 289.83 211.591 287.32Z" fill="#FCFFE6"/>
<path fill-rule="evenodd" clip-rule="evenodd" d="M707.405 105.688C709.12 107.782 713.51 106.546 716.355 107.34V111.241C716.682 111.478 717.088 111.907 717.257 111.872C724.7 110.265 728.58 115.299 735.091 115.821C741.32 116.32 744.888 119.351 746.112 123.361C746.598 124.974 745.503 126.148 743.282 126.92C753.952 132.693 747.272 138.435 743.818 144.291C739.388 151.796 730.27 152.686 719.967 152.321C717.901 148.577 719.06 145.472 722.98 143.143C714.873 139.725 712.465 144.826 707.331 145.776C705.661 143.719 704.169 141.882 702.846 140.256C702.915 138.329 707.276 137.651 705.165 135.497C701.523 132.69 700.264 137.215 696.473 136.476C691.374 133.513 691.974 128.99 692.103 124.904C690.007 124.552 688.788 124.343 686.9 124.027C687.583 121.85 692.291 121.223 692.152 118.887C692.167 116.349 687.995 118.276 686.79 116.397C693.208 112.979 697.574 107.852 707.405 105.688Z" fill="#FCFFE6"/>
<path fill-rule="evenodd" clip-rule="evenodd" d="M393.563 227.361H382.487C380.218 225.896 380.807 221.965 383.85 217.84C377.458 214.467 374.97 219.367 371.461 220.417C367.334 220.541 367.096 218.231 365.272 217.949C364.108 215.408 368.84 214.87 367.314 212.243C364.479 211.161 358.369 212.179 357.14 209.055C356.263 206.821 355.426 203.896 359.782 201.906C357.998 201.502 356.437 201.15 354.871 200.798C355.223 198.321 360.386 196.465 357.309 193.252C363.121 188.246 372.978 186.227 380.545 182.239C381.917 181.516 384.811 179.004 388.642 180.668C390.188 182.009 386.62 182.006 386.942 183.212C390.738 184.755 395.49 182.892 399.579 184.255C400.847 186.198 398.86 189.046 403.687 190.243C409.405 188.47 415.168 187.76 420.203 192.855C413.612 195.642 404.742 196.593 403.27 202.971C408.761 203.074 412.161 199.928 417.388 199.448C418.474 200.081 419.762 200.83 421.511 201.848C421.888 202.024 421.214 202.248 420.709 202.872C417.651 206.626 408.127 206.117 407.453 211.347C401.422 212.886 401.883 217.226 400.788 219.94C399.524 223.079 396.967 224.852 393.563 227.361Z" fill="#FCFFE6"/>
<path fill-rule="evenodd" clip-rule="evenodd" d="M622.35 28.0491C620.804 30.3694 617.692 30.8911 620.224 33.5826C621.919 34.7411 625.908 32.8561 629.422 34.1043C629.615 34.7059 629.863 35.4996 630.195 36.5653C630.591 36.9846 631.359 37.1862 631.835 36.7318C633.307 35.314 635.458 35.3524 637.722 35.3812C644.338 35.4612 645.755 36.6934 646.3 41.0523C646.538 42.9725 644.134 43.8302 643.897 45.6896C646.102 45.792 648.228 45.8913 651.132 46.0257C653.272 52.484 647.435 58.1711 645.557 64.1302C644.6 67.1546 637.38 68.6204 631.572 68.5884C629.456 67.9675 630.12 66.6361 629.818 66.1081C628.842 64.8791 628.5 65.1095 627.514 65.6536C624.516 67.3114 620.908 67.7211 618.5 65.4392C616.027 63.0965 612.514 63.4517 609.223 63.0773C607.345 61.8292 608.748 60.3026 608.252 58.9584C606.602 57.4766 604.139 58.3887 601.671 57.9055C596.592 55.7004 599.02 50.8774 594.754 48.1123C608.966 33.5698 612.37 30.9967 622.35 28.0491Z" fill="#FCFFE6"/>
<path fill-rule="evenodd" clip-rule="evenodd" d="M466.679 402.011C468.012 406.651 472.819 408.223 480.069 407.01C486.545 414.943 484.236 423.207 482.774 431.224C482.467 432.926 480.931 435.007 481.377 436.815C482.254 440.377 478.919 443.241 478.037 446.493C477.353 449.012 471.456 449.575 467.789 450.89C462.868 448.083 462.868 448.083 461.52 444.029C459.925 443.961 458.21 443.891 459.429 443.942C452.531 443.785 455.405 440.822 452.482 439.98C450.817 439.5 448.21 438.418 448.869 436.719C449.945 433.941 443.587 432.03 446.292 429.684C449.038 427.307 447.427 424.564 449.023 422.548C453.111 417.376 454.4 411.74 456.694 406.306C458.195 402.747 461.05 401.755 466.679 402.011Z" fill="#FCFFE6"/>
<path fill-rule="evenodd" clip-rule="evenodd" d="M181.461 148.164C183.438 149.265 184.796 150.542 188.022 150.711C196.223 151.143 196.199 151.348 198.156 157.195C204.162 158.491 209.796 157.221 214.831 155.707C217.388 157.375 215.619 158.911 216.674 160.36C214.806 160.777 213.24 161.125 211.298 161.557V171.571C213.989 171.018 216.506 170.499 220.292 169.725C221.744 169.651 222.145 171.645 224.231 172.058C221.223 177.114 214.955 180.228 209.504 183.778C202.854 182.834 195.644 187.631 189.667 182.581C189.915 182.28 190.302 176.51 189.766 175.338C191.075 175.239 192.323 175.127 193.577 175.05C194.454 174.996 195.336 174.986 196.218 174.954C198.404 173.655 196.704 171.328 199.737 170.038C192.943 171.571 187.036 173.444 182.596 176.846C180.718 175.412 178.864 174.241 175.415 174.833C181.332 171.738 173.394 167.83 180.396 164.972C175.093 164.828 174.543 167.068 172.437 167.542C170.465 167.984 168.255 167.984 166.297 168.163C163.889 164.947 160.564 162.156 163.2 157.989C166.629 156.066 174.811 156.498 176.149 151.028C170.029 151.796 165.995 154.027 162.977 155.986C159.152 155.531 159.504 154.325 159.627 153.192C166.466 153.505 165.807 148.004 171.575 146.922C176.203 146.055 180.069 143.478 185.857 140.969C185.277 144.333 183.304 146.244 181.461 148.164Z" fill="#FCFFE6"/>
<path fill-rule="evenodd" clip-rule="evenodd" d="M305.536 409.834C307.121 408.807 308.712 407.783 310.308 406.752C305.615 404.768 315.105 401.254 308.42 399.481C318.781 391.557 318.915 391.355 319.475 383.082H332.062C333.098 383.418 332.122 384.836 333.088 385.735C345.69 386.682 348.375 388.574 348.787 396.738C348.896 398.927 347.781 401.34 351.349 402.937C348.722 405.296 350.194 408.323 347.449 410.925C342.176 415.915 335.536 419.986 329.198 424.252C326.586 425.074 324.203 424.562 322.022 424.405C320.843 421.163 327.676 419.15 322.909 415.684C321.368 417.131 319.916 418.501 318.4 419.928C313.648 416.228 305.585 415.163 305.536 409.834Z" fill="#FCFFE6"/>
<path fill-rule="evenodd" clip-rule="evenodd" d="M102.813 530.29C104.682 528.242 108.998 530.642 110.911 528.325C107.1 527.045 103.041 527.96 98.631 527.592C97.0007 523.957 93.7251 520.619 91.5645 516.807C86.9956 508.732 89.9937 501.771 94.6121 494.51C96.4456 491.62 99.1711 490.525 104.419 491.233C105.707 493.018 107.253 495.163 109.028 497.621C112.021 498.337 116.713 497.553 119.037 501.035C118.755 506.831 118.369 513.283 124.875 518.769C122.918 521.076 121.144 523.16 119.27 525.361C120.767 525.71 122.323 526.075 124.677 526.626C123.408 529.439 121.867 532.124 117.982 534.435H106.545C104.959 533.231 102.159 532.412 102.813 530.29Z" fill="#FCFFE6"/>
<path fill-rule="evenodd" clip-rule="evenodd" d="M494.027 316.057C495.895 314.13 498.789 314.812 501.118 314.706C507.575 318.444 503.427 324.375 508.259 328.42C500.241 338.546 500.241 338.546 486.569 342.626C483.814 342.185 482.228 340.956 481.227 339.33C480.459 337.413 485.612 336.984 483.883 334.779C481.316 332.869 479.398 334.094 477.505 335.429C469.73 333.457 471.653 326.961 464.884 324.307C465.647 320.717 463.957 316.988 465.761 313.34L476.995 304.334C478.764 304.286 480.533 304.235 482.272 304.183C483.838 305.94 487.104 311.583 486.618 312.191C488.928 313.397 491.326 314.649 494.027 316.057Z" fill="#FCFFE6"/>
<path fill-rule="evenodd" clip-rule="evenodd" d="M641.833 312.923C644.529 312.19 641.982 309.757 644.073 309.642C647.973 309.095 649.46 310.442 650.545 311.547C652.82 313.864 649.936 317.003 651.833 318.984C654.232 321.493 655.154 323.106 652.274 325.718C649.881 327.884 651.209 330.832 649.212 333.584C644.435 340.184 644.703 340.712 633.592 340.654C633.275 340.449 632.7 340.254 632.681 340.036C632.596 338.884 632.641 337.726 632.641 336.337C629.029 334.992 623.498 336.004 621.491 332.003C619.98 328.992 615.129 326.873 616.234 322.933C617.071 319.928 615.916 316.946 620.421 314.344C622.666 313.044 624.866 310.538 624.693 307.719C624.574 305.683 627.23 304.432 630.857 304.157C634.212 303.904 636.055 305.191 637.373 306.554C639.266 308.522 640.396 310.801 641.833 312.923Z" fill="#FCFFE6"/>
<path fill-rule="evenodd" clip-rule="evenodd" d="M555.825 251.854C551.984 251.854 548.406 251.854 544.819 251.854C541.959 250.676 544.407 248.599 542.926 247.185C541.038 246.036 538.674 246.935 536.523 246.577C533.426 242.528 529.437 238.62 527.415 234.322C525.22 229.675 528.495 225.076 530.889 220.705C536.365 219.249 538.907 221.966 541.999 223.908C545.582 223.911 549.15 223.911 552.812 223.911C554.65 227.246 557.212 230.011 563.788 229.119C566.865 231.458 562.658 235.129 567.589 236.931C565.151 239.12 562.856 241.299 562.252 244.115C561.657 246.865 559.442 249.204 555.825 251.854Z" fill="#FCFFE6"/>
<path fill-rule="evenodd" clip-rule="evenodd" d="M837.718 224.901C832.807 229.164 825.607 230.54 817.817 230.975C812.544 226.824 821.529 226.011 822.247 223.336C816.469 219.803 811.707 225.73 806.241 223.489C803.025 221.579 807.376 220.788 808.065 219.415C806.132 217.761 802.856 219.476 800.914 218.426C798.699 214.81 802.405 210.781 797.737 207.308C802.138 204.738 801.291 199.778 807.629 197.736C813.506 198.411 817.113 201.25 821.504 203.471C825.389 205.433 831.662 205.049 834.903 209.885C832.857 214.18 840.181 219.082 837.718 224.901Z" fill="#FCFFE6"/>
<path fill-rule="evenodd" clip-rule="evenodd" d="M23.7386 239.271C28.2877 241.003 32.7773 241.486 35.7307 244.773C33.8229 245.518 31.6276 246.376 29.4324 247.234C35.5325 248.45 40.5028 244.753 45.8795 247.378C42.926 250.735 36.5385 250.697 32.5741 252.962C32.1479 254.988 34.0261 254.988 36.4096 255.478C40.3294 256.281 41.0876 252.322 44.8438 253.673C46.2957 254.531 46.9498 255.961 45.3393 256.56C36.6425 259.798 29.5265 264.311 21.8902 268.391C17.356 270.811 15.8743 271.467 8.70872 272.318C9.25382 270.529 11.9149 269.88 13.4511 268.523C9.85343 265.988 6.84052 268.139 3.63931 269.038C3.1735 265.45 -1.32109 262.464 0.854351 257.549C9.30338 253.036 13.8624 245.077 23.7386 239.271Z" fill="#FCFFE6"/>
</g>
</svg>
